<?xml version="1.0" standalone="no"?>
<!DOCTYPE svg PUBLIC "-//W3C//DTD SVG 20010904//EN"
 "http://www.w3.org/TR/2001/REC-SVG-20010904/DTD/svg10.dtd">
<svg version="1.0" xmlns="http://www.w3.org/2000/svg"
 width="825.000000pt" height="543.000000pt" viewBox="0 0 825.000000 543.000000"
 preserveAspectRatio="xMidYMid meet">
<metadata>
Created by potrace 1.16, written by Peter Selinger 2001-2019
</metadata>
<g transform="translate(0.000000,543.000000) scale(0.100000,-0.100000)"
fill="#000000" stroke="none">
<path d="M63 5400 c-69 -41 -63 197 -63 -2703 l0 -2624 23 -34 23 -34 4079 0
4079 0 23 34 23 34 0 2621 c0 2475 -1 2623 -18 2656 -10 20 -32 42 -52 52 -33
17 -140 18 -1805 18 -1146 0 -1765 -4 -1755 -10 13 -8 13 -10 0 -10 -11 0 -11
-3 -2 -12 20 -20 14 -38 -13 -38 -26 0 -35 24 -13 34 15 7 -63 -1 -84 -9 -7
-3 -20 0 -28 5 -13 9 -12 12 4 25 19 14 19 15 -8 15 -16 0 -25 -4 -21 -10 4
-6 4 -24 0 -40 -8 -36 -31 -39 -69 -9 -32 25 -57 19 -49 -12 5 -19 3 -21 -13
-14 -82 34 -138 49 -141 38 -3 -7 -9 -13 -14 -13 -6 0 -8 4 -5 9 3 5 -10 18
-30 30 -27 16 -52 21 -109 21 -41 0 -86 -5 -100 -12 -19 -9 -28 -9 -37 0 -9 9
-470 12 -1903 12 -1857 0 -1891 0 -1922 -20z m4916 -78 c52 -16 80 -42 47 -42
-9 0 -16 -4 -16 -9 0 -14 36 -23 59 -16 11 3 37 -4 60 -16 28 -14 51 -19 70
-16 17 4 36 0 47 -8 18 -14 18 -14 -3 -15 -12 0 -29 -3 -37 -6 -15 -6 -15 -8
1 -20 16 -13 17 -15 2 -26 -9 -7 -14 -19 -12 -25 6 -17 -21 -16 -55 1 -42 22
-155 7 -179 -23 -17 -20 -22 -22 -41 -12 -26 14 -28 26 -7 35 8 3 15 12 15 21
0 8 7 15 15 15 30 0 16 40 -20 57 -19 9 -35 20 -35 24 0 4 -9 9 -20 12 -11 3
-20 12 -20 21 0 18 15 21 25 6 14 -22 27 -8 23 25 -5 41 1 42 81 17z m-1792
-109 c-2 -24 -7 -28 -37 -31 -19 -2 -51 -16 -70 -31 -19 -16 -46 -31 -58 -35
-13 -4 -34 -25 -47 -47 -16 -24 -36 -41 -53 -45 -34 -8 -52 -22 -52 -41 0 -17
-109 -122 -127 -123 -20 0 -17 4 42 67 76 81 74 96 -10 83 -57 -9 -68 -5 -41
16 19 13 19 15 2 27 -17 13 -17 14 8 31 15 9 32 16 39 15 32 -4 51 3 78 31 59
58 192 117 149 66 -6 -9 -28 -21 -47 -28 -19 -7 -43 -26 -54 -45 -17 -28 -27
-33 -58 -33 -51 0 -55 -8 -21 -41 36 -36 54 -36 81 0 11 16 32 35 45 42 13 7
24 18 24 25 0 7 9 18 21 24 11 7 25 25 31 42 10 27 14 29 44 24 19 -4 35 -2
39 4 7 12 42 28 62 29 7 1 11 -10 10 -26z m2553 -384 c0 -11 5 -19 10 -19 6 0
15 -11 20 -25 11 -29 30 -33 30 -7 0 24 65 45 81 26 16 -19 4 -44 -20 -44 -28
0 -45 -34 -31 -61 9 -15 15 -18 24 -9 14 11 46 4 46 -11 0 -5 7 -9 16 -9 11 0
14 5 10 16 -4 10 1 22 11 29 16 12 16 14 -7 33 -14 11 -21 24 -17 28 4 4 24
-8 43 -28 41 -40 41 -78 1 -78 -21 0 -21 -1 3 -13 14 -7 25 -19 25 -27 0 -22
-34 -24 -58 -3 -42 35 -67 45 -82 33 -18 -15 -29 -7 -45 30 -7 16 -16 30 -21
30 -18 0 -49 41 -49 64 0 16 -7 27 -20 31 -19 6 -26 25 -14 37 11 12 44 -5 44
-23z m588 -521 c7 -7 12 -30 12 -52 0 -22 7 -47 16 -57 10 -11 16 -35 16 -59
-1 -43 19 -63 41 -41 26 26 76 -5 91 -56 9 -29 -10 -39 -24 -12 -10 18 -18 21
-56 16 -46 -5 -75 14 -79 51 -4 38 -29 108 -47 128 -21 24 -22 34 -6 69 13 28
19 30 36 13z m-2118 -189 c58 -33 85 -82 85 -155 0 -54 -4 -67 -31 -101 -45
-57 -87 -75 -161 -71 -69 4 -103 23 -140 77 -33 49 -39 110 -15 162 48 108
160 145 262 88z m-579 -49 c44 -23 75 -67 85 -118 20 -103 -87 -205 -189 -182
-89 20 -143 87 -135 170 12 117 133 184 239 130z m1129 -2 c52 -36 73 -71 77
-130 5 -71 -25 -124 -87 -156 -153 -79 -309 107 -205 244 50 66 151 85 215 42z
m-626 -374 c18 -7 21 -35 6 -50 -12 -12 -3 -144 9 -144 4 0 27 41 51 90 24 50
50 90 58 90 7 0 38 -12 69 -27 63 -31 120 -92 128 -137 3 -17 5 -123 3 -235
l-3 -205 -170 -43 -170 -42 -155 40 c-85 22 -163 42 -172 45 -16 5 -18 24 -18
207 0 218 6 259 47 308 25 29 132 89 159 89 7 0 31 -41 55 -90 27 -57 45 -86
50 -78 10 19 14 120 5 141 -16 36 8 56 48 41z m560 -10 c17 -7 22 -39 7 -48
-9 -6 -3 -92 8 -114 4 -7 23 20 46 68 36 74 41 79 64 73 70 -16 140 -72 160
-126 6 -16 11 -93 11 -172 l0 -144 -37 -10 c-294 -77 -424 -111 -432 -111 -6
0 -11 90 -13 218 -3 216 -3 217 -30 263 l-28 47 33 15 c75 35 72 36 121 -60
l44 -88 7 68 c5 48 4 71 -5 82 -10 12 -10 18 0 30 14 17 21 18 44 9z m-1108
-15 c3 -6 1 -16 -5 -22 -12 -12 -13 -74 -2 -122 7 -29 9 -27 51 56 47 95 46
94 122 59 l27 -13 -27 -40 c-27 -40 -27 -41 -30 -264 -2 -123 -6 -223 -8 -223
-3 0 -106 27 -229 60 -123 33 -226 60 -230 60 -3 0 -5 74 -3 164 l3 165 35 36
c38 40 98 75 128 75 13 0 29 -23 57 -80 21 -44 42 -80 46 -80 12 0 21 132 9
144 -5 5 -10 16 -10 23 0 16 56 18 66 2z m3113 -115 c17 -38 14 -51 -15 -58
-24 -6 -25 -8 -10 -25 9 -10 16 -25 16 -35 0 -9 10 -35 21 -58 l21 -42 18 25
19 24 11 -30 c6 -16 9 -37 7 -47 -3 -10 -1 -21 4 -24 17 -10 9 -53 -11 -64
-16 -9 -19 -19 -15 -68 2 -31 4 -59 4 -62 2 -10 31 53 31 66 0 8 4 14 9 14 4
0 11 -26 15 -57 8 -68 -5 -90 -34 -55 -18 22 -19 22 -25 2 -9 -29 -22 -25 -41
12 -13 24 -14 36 -5 50 6 10 11 44 11 75 0 32 4 64 9 71 6 10 -6 28 -39 61
-51 51 -61 77 -65 166 -3 87 35 122 64 59z m51 -609 c11 -25 23 -45 27 -45 5
0 13 -10 18 -22 6 -15 18 -23 33 -22 21 1 31 -19 13 -30 -4 -3 -11 -19 -14
-36 -7 -31 -27 -42 -27 -15 0 18 -17 20 -23 3 -3 -10 -7 -10 -19 -1 -10 9 -18
9 -25 2 -16 -16 -33 -2 -33 25 0 28 25 53 35 36 4 -7 11 -8 16 -3 4 4 -5 35
-21 67 -26 56 -30 86 -9 86 6 0 18 -20 29 -45z m-30 -208 c0 -1 7 -20 14 -42
12 -34 16 -37 21 -20 18 52 28 75 34 75 3 0 19 -12 35 -26 31 -27 28 -36 -16
-58 -28 -14 -37 -66 -14 -86 13 -10 19 -10 31 0 21 17 29 7 20 -27 -8 -28 -9
-44 -13 -135 -1 -27 -6 -48 -11 -48 -13 0 -23 62 -11 74 5 5 9 26 9 46 -1 27
-3 29 -6 10 -3 -14 -17 -41 -33 -61 -16 -20 -35 -51 -43 -70 -16 -39 -42 -64
-57 -54 -19 11 -10 41 20 70 17 16 30 36 30 44 0 9 7 25 15 35 8 11 15 32 15
47 0 21 -5 28 -22 31 -28 4 -36 39 -13 58 25 20 18 45 -17 61 -24 10 -34 21
-36 42 -5 45 4 60 28 47 11 -6 20 -12 20 -13z m-3728 -140 c91 -44 147 -102
192 -197 27 -59 30 -74 31 -165 0 -95 -2 -104 -37 -176 -45 -91 -103 -148
-196 -192 -56 -26 -82 -32 -159 -35 -51 -3 -93 -8 -93 -12 0 -5 109 -114 242
-244 194 -190 236 -236 217 -236 -18 0 -84 60 -269 245 l-245 245 -82 0 -83 0
0 -245 c0 -211 -2 -245 -15 -245 -13 0 -15 77 -15 635 l0 635 -55 0 c-43 0
-55 3 -55 16 0 13 31 15 273 12 l273 -3 76 -38z m1163 11 c62 -32 130 -104
158 -166 31 -71 34 -173 7 -244 -26 -70 -103 -158 -162 -186 l-42 -19 36 -17
c60 -29 113 -81 149 -148 32 -59 34 -69 34 -153 0 -78 -4 -98 -28 -147 -33
-67 -90 -121 -166 -157 l-56 -26 -322 -3 c-287 -3 -323 -1 -323 12 0 13 12 16
55 16 l55 0 0 620 0 620 -55 0 c-43 0 -55 3 -55 16 0 13 38 15 333 12 l332 -3
50 -27z m1704 -1260 c1 -5 -63 -8 -142 -8 l-142 0 -125 250 -125 250 -240 0
-240 -1 -122 -249 c-101 -207 -125 -250 -142 -250 -18 0 25 91 305 652 l326
653 324 -645 c177 -355 323 -648 323 -652z m456 -65 c-5 -21 -9 -50 -10 -64
-2 -14 -9 -39 -18 -55 -8 -16 -12 -35 -10 -41 3 -7 -16 -25 -42 -40 -39 -24
-45 -32 -40 -52 6 -25 -27 -71 -51 -71 -23 0 -25 37 -4 72 27 44 26 54 -12 89
-27 24 -31 32 -22 47 26 40 84 13 84 -40 0 -18 5 -28 15 -28 21 0 55 72 55
117 0 40 31 103 51 103 8 0 9 -12 4 -37z m-4452 -13 c9 0 19 -6 24 -12 5 -9 9
-3 13 17 l5 30 28 -48 c27 -46 42 -57 49 -36 6 17 38 -2 38 -22 0 -11 7 -31
16 -44 9 -14 14 -31 11 -39 -3 -8 4 -27 16 -42 12 -16 20 -38 19 -49 -2 -12 4
-28 12 -35 10 -7 16 -29 16 -53 l0 -41 -44 49 c-44 50 -54 74 -16 40 19 -18
20 -17 20 3 0 12 -13 30 -30 42 -16 12 -30 30 -30 41 0 15 -6 19 -32 17 l-33
-3 0 50 c0 60 -20 97 -50 89 -23 -6 -51 15 -79 61 l-19 30 25 -22 c13 -13 32
-23 41 -23z m3764 -580 c3 -11 9 -20 13 -20 5 0 10 -10 12 -22 3 -21 7 -23 67
-21 81 3 101 -10 70 -44 -28 -29 -37 -29 -45 1 -6 23 -7 24 -40 10 -44 -18
-70 -18 -78 2 -4 10 -14 14 -26 11 -26 -7 -28 27 -2 43 13 9 4 10 -41 5 -55
-5 -57 -4 -47 14 14 28 39 40 78 41 26 0 35 -5 39 -20z m-283 -164 c22 -19 37
-23 63 -19 18 3 33 2 33 -3 -1 -21 -21 -38 -47 -40 -22 -1 -27 -5 -25 -20 2
-10 9 -22 16 -26 19 -10 12 -89 -8 -100 -11 -6 -22 -6 -31 2 -9 7 -30 9 -58 5
-35 -5 -47 -13 -58 -33 -7 -15 -12 -30 -11 -34 4 -17 -38 -33 -112 -44 -44 -7
-84 -10 -88 -7 -5 2 -8 13 -8 24 0 17 -5 19 -34 14 -27 -6 -39 -2 -55 14 -41
41 -13 60 44 30 20 -11 45 -17 55 -14 10 3 21 1 25 -5 3 -5 30 -10 58 -10 47
0 55 3 80 34 28 36 34 56 18 56 -6 0 -16 -12 -23 -27 -15 -31 -58 -45 -58 -18
0 8 7 18 15 21 8 3 17 14 20 24 3 10 19 23 34 30 16 6 31 20 34 31 5 20 33 36
45 25 3 -4 0 -16 -7 -28 -7 -11 -9 -24 -4 -28 14 -13 87 -20 103 -10 12 7 11
12 -9 29 -13 11 -21 27 -18 35 3 8 -1 17 -9 20 -8 3 -14 14 -14 24 0 11 -6 25
-14 32 -16 13 -11 40 8 40 6 -1 24 -11 40 -24z m-1490 -318 c19 -26 21 -64 4
-74 -14 -9 18 -34 43 -34 10 0 29 -11 43 -25 20 -20 35 -25 77 -25 50 0 51 1
36 18 -24 26 -21 42 7 42 18 0 27 -8 35 -30 6 -19 17 -30 29 -30 11 0 30 -9
43 -20 l24 -19 -42 -1 c-23 0 -45 5 -48 10 -8 13 -52 13 -60 0 -10 -15 -71
-12 -85 5 -7 8 -26 15 -42 15 -16 0 -31 6 -34 15 -4 8 -11 15 -16 15 -5 0 -21
9 -35 20 -35 27 -55 25 -92 -11 -34 -32 -48 -33 -65 -7 -14 23 9 48 45 48 15
0 31 5 34 10 3 6 17 10 30 10 18 0 26 7 31 24 3 14 3 30 -1 35 -7 12 2 31 15
31 5 0 16 -10 24 -22z m1117 -27 l28 -29 -25 -6 c-14 -4 -29 -4 -35 -1 -5 4
-22 -3 -38 -14 -16 -12 -38 -21 -49 -21 -11 0 -38 -6 -60 -14 -22 -8 -60 -17
-84 -21 -37 -6 -47 -3 -63 15 -17 19 -17 22 -2 37 15 15 18 15 41 -1 20 -13
33 -14 63 -7 86 22 131 43 142 67 14 32 46 31 82 -5z"/>
<path d="M2510 2235 l0 -375 80 0 80 0 0 375 0 375 -80 0 -80 0 0 -375z"/>
<path d="M2700 2235 l0 -377 103 4 c122 5 188 30 265 102 192 180 143 490 -95
608 -60 29 -78 33 -170 36 l-103 4 0 -377z"/>
<path d="M3582 1993 l3 -618 73 -3 72 -3 0 621 0 620 -75 0 -75 0 2 -617z"/>
<path d="M3770 2310 l0 -302 158 4 c179 3 217 15 290 89 117 116 115 305 -3
421 -72 71 -110 83 -287 86 l-158 4 0 -302z"/>
<path d="M3770 1675 l0 -307 148 5 c170 5 218 19 286 78 25 22 57 65 73 97 72
146 1 337 -150 402 -44 20 -75 24 -204 28 l-153 5 0 -308z"/>
<path d="M5157 2465 c-26 -52 -47 -101 -47 -108 -1 -6 108 -229 242 -494 l243
-482 58 -1 c31 0 67 6 78 13 17 10 23 10 26 0 4 -12 43 -19 43 -8 0 10 -585
1175 -590 1175 -3 0 -27 -43 -53 -95z"/>
<path d="M4977 2094 c-59 -118 -107 -216 -107 -219 0 -3 97 -5 215 -5 118 0
215 4 215 9 0 6 -206 418 -214 428 -1 1 -50 -95 -109 -213z"/>
</g>
</svg>
